<svg width="33" height="33" viewBox="0 0 33 33" fill="none" xmlns="http://www.w3.org/2000/svg">
<path fill-rule="evenodd" clip-rule="evenodd" d="M9.22146 7.31714C9.30146 8.50381 9.50146 9.66381 9.82146 10.7705L8.22146 12.3705C7.6748 10.7705 7.32813 9.07714 7.20813 7.31714H9.22146ZM22.3681 23.3438C23.5015 23.6638 24.6615 23.8638 25.8348 23.9438V25.9305C24.0748 25.8105 22.3815 25.4638 20.7681 24.9305L22.3681 23.3438ZM10.5015 4.65039H5.8348C5.10146 4.65039 4.50146 5.25039 4.50146 5.98372C4.50146 18.5037 14.6481 28.6504 27.1681 28.6504C27.9015 28.6504 28.5015 28.0504 28.5015 27.3171V22.6637C28.5015 21.9304 27.9015 21.3304 27.1681 21.3304C25.5148 21.3304 23.9015 21.0637 22.4081 20.5704C22.2748 20.5171 22.1281 20.5037 21.9948 20.5037C21.6481 20.5037 21.3148 20.6371 21.0481 20.8904L18.1148 23.8237C14.3415 21.8904 11.2481 18.8104 9.32813 15.0371L12.2615 12.1037C12.6348 11.7304 12.7415 11.2104 12.5948 10.7437C12.1015 9.25039 11.8348 7.65039 11.8348 5.98372C11.8348 5.25039 11.2348 4.65039 10.5015 4.65039Z" fill="white"/>
</svg>
