<svg width="33" height="33" viewBox="0 0 33 33" fill="none" xmlns="http://www.w3.org/2000/svg">
<path fill-rule="evenodd" clip-rule="evenodd" d="M16.5014 3.31738C21.6614 3.31738 25.8348 7.49072 25.8348 12.6507C25.8348 19.6507 16.5014 29.984 16.5014 29.984C16.5014 29.984 7.16809 19.6507 7.16809 12.6507C7.16809 7.49072 11.3414 3.31738 16.5014 3.31738ZM9.83476 12.6507C9.83476 16.4507 13.7281 22.264 16.5014 25.8241C19.3281 22.2374 23.1681 16.4907 23.1681 12.6507C23.1681 8.97072 20.1814 5.98405 16.5014 5.98405C12.8214 5.98405 9.83476 8.97072 9.83476 12.6507ZM16.5014 15.984C14.6605 15.984 13.1681 14.4917 13.1681 12.6507C13.1681 10.8098 14.6605 9.31738 16.5014 9.31738C18.3424 9.31738 19.8348 10.8098 19.8348 12.6507C19.8348 14.4917 18.3424 15.984 16.5014 15.984Z" fill="white"/>
</svg>
