<svg width="35" height="33" viewBox="0 0 35 33" fill="none" xmlns="http://www.w3.org/2000/svg">
<g id="Group 29">
<path id="Vector" d="M34.9073 12.4646C34.6422 11.6607 33.8528 11.1083 32.7415 10.949L23.6831 9.65159L19.6317 1.56193C19.1347 0.569505 18.3577 0 17.5 0C16.6423 0 15.8652 0.569505 15.3683 1.56219L11.3175 9.65159L2.2588 10.949C1.14716 11.1083 0.357552 11.6607 0.0926595 12.4646C-0.172233 13.2686 0.136986 14.1729 0.941277 14.9453L7.4963 21.2422L5.9486 30.1341C5.75073 31.2712 6.08799 31.9526 6.40575 32.3242C6.77853 32.76 7.3222 33 7.93663 33C8.39886 33 8.89046 32.8666 9.39808 32.6037L17.5 28.4058L25.6025 32.6039C26.1098 32.8668 26.6014 33 27.0636 33H27.0639C27.6781 33 28.222 32.76 28.5948 32.3242C28.9123 31.9528 29.2498 31.2712 29.0517 30.1341L27.5042 21.2422L34.059 14.9453C34.863 14.1729 35.1722 13.2686 34.9073 12.4646Z" fill="#602DB0"/>
</g>
</svg>
